<svg width="29" height="30" viewBox="0 0 29 30" fill="none" xmlns="http://www.w3.org/2000/svg">
<path fill-rule="evenodd" clip-rule="evenodd" d="M12.2503 18.3749C12.4395 18.3749 12.5926 18.528 12.5926 18.7171V28.8516C12.5926 29.0408 12.4395 29.1939 12.2503 29.1939H8.40268C8.21353 29.1939 8.06041 29.0408 8.06041 28.8516V18.7171C8.06041 18.528 8.21353 18.3749 8.40268 18.3749H12.2503ZM0.462939 22.8078C0.273788 22.8078 0.120669 22.961 0.120669 23.1501V28.8516C0.120669 29.0408 0.273792 29.1939 0.462939 29.1939H4.3106C4.49975 29.1939 4.65287 29.0408 4.65287 28.8516V23.1501C4.65287 22.961 4.49975 22.8078 4.3106 22.8078H0.462939ZM16.3393 13.3835C16.1502 13.3835 15.9971 13.5366 15.9971 13.7258V28.8516C15.9971 29.0408 16.1502 29.1939 16.3393 29.1939H20.187C20.3762 29.1939 20.5293 29.0408 20.5293 28.8516V13.7258C20.5293 13.5366 20.3762 13.3835 20.187 13.3835H16.3393ZM24.2775 8.08434C24.0884 8.08434 23.9353 8.23746 23.9353 8.42661V28.8516C23.9353 29.0408 24.0884 29.1939 24.2775 29.1939H28.1252C28.3144 29.1939 28.4675 29.0408 28.4675 28.8516L28.469 8.42508C28.469 8.23592 28.3159 8.08281 28.1267 8.08281H24.279L24.2775 8.08434ZM0.548255 20.4002C0.624816 20.4002 0.704378 20.3821 0.779437 20.3476C10.5715 15.7705 19.4647 9.65318 27.2334 2.15462L27.0023 3.40661C26.9467 3.70385 27.1434 3.99056 27.4421 4.04463C27.7393 4.09868 28.0261 3.90352 28.0801 3.6048L28.6266 0.645957C28.6566 0.476321 28.6071 0.300682 28.4885 0.174569C28.3714 0.0484706 28.2002 -0.0160813 28.0276 0.00343367L25.0372 0.327691C24.737 0.360717 24.5193 0.630931 24.5524 0.931165C24.5854 1.2314 24.8556 1.44909 25.1558 1.41604L26.5805 1.26142C18.8748 8.72385 10.0419 14.8097 0.315527 19.3568C0.0423096 19.4844 -0.0762718 19.8102 0.0513174 20.0849C0.144392 20.2845 0.342579 20.4002 0.548255 20.4002Z" fill="#00B10C"/>
</svg>
