<svg width="84" height="40" viewBox="0 0 84 40" fill="none" xmlns="http://www.w3.org/2000/svg">
<path d="M20.0008 40C31.0462 40 40.0013 31.0455 40.0013 20C40.0013 8.95454 31.0467 0 20.0008 0C8.95479 0 0.000244141 8.95454 0.000244141 20C0.000244141 31.0455 8.95479 40 20.0008 40Z" fill="#696969"/>
<path d="M24.8709 27.0378H20.7291V11.3838H19.1931V28.5824H20.7291V28.5723H24.8709V27.0378Z" fill="white"/>
<path d="M35.2089 20.6399H24.8952V19.1039H36.7195C36.7352 19.4009 36.7428 19.6983 36.7428 19.9993C36.7428 29.2463 29.2468 36.7419 20.0003 36.7419C10.7539 36.7419 3.25781 29.2463 3.25781 19.9993C3.25781 10.7524 10.7539 3.25684 20.0008 3.25684C20.2446 3.25684 20.4878 3.2619 20.7296 3.27254L20.7275 4.79689C20.4855 4.78572 20.2432 4.78015 20.0008 4.78017C11.5956 4.78017 4.78115 11.5941 4.78115 19.9993C4.78115 28.4051 11.5951 35.2185 20.0008 35.2185C28.177 35.2185 34.847 28.7715 35.2048 20.683L35.2089 20.6399Z" fill="white"/>
<path d="M13.7555 16.0168C14.3795 16.0168 14.9779 15.769 15.4191 15.3278C15.8603 14.8866 16.1081 14.2881 16.1081 13.6642C16.1081 13.0402 15.8603 12.4418 15.4191 12.0006C14.9779 11.5594 14.3795 11.3115 13.7555 11.3115C13.1315 11.3115 12.5331 11.5594 12.0919 12.0006C11.6507 12.4418 11.4028 13.0402 11.4028 13.6642C11.4028 14.2881 11.6507 14.8866 12.0919 15.3278C12.5331 15.769 13.1315 16.0168 13.7555 16.0168Z" fill="white"/>
<path d="M49.9324 29.8168H64.2237V25.5007H55.1794V10.0454H49.9324V29.8168ZM81.4907 11.4375C79.8523 10.168 77.7426 9.52441 75.225 9.52441C72.2356 9.52441 69.7378 10.4427 68.0011 12.1778C66.1884 13.9916 65.2286 16.6632 65.2286 19.904C65.2286 23.3662 66.2431 26.2877 68.0852 28.1283C69.5315 29.5741 71.4582 30.3368 73.6632 30.3368C78.5033 30.3368 79.6167 27.4355 79.6167 27.4355V29.8158H83.9875V18.6497H75.2869V22.1439H79.2913C79.2913 22.1439 79.3298 26.5431 75.1967 26.5431C74.1466 26.5431 73.2111 26.162 72.4915 25.4424C71.3701 24.322 70.7772 22.4338 70.7772 19.9861C70.7772 15.932 72.3887 13.5116 75.0867 13.5116C76.7722 13.5116 78.0391 14.5465 78.3639 16.1149H83.9302C83.6419 13.836 83.0166 12.6481 81.4907 11.4375Z" fill="#696969"/>
</svg>
